<mxfile host="app.diagrams.net" modified="2022-10-18T08:45:16.061Z" agent="5.0 (Windows NT 10.0; Win64; x64) AppleWebKit/537.36 (KHTML, like Gecko) Chrome/106.0.0.0 Safari/537.36 Edg/106.0.1370.42" etag="-i4ZsmWixMSCKToH8--W" version="20.4.1" type="github">
  <diagram name="Page-1" id="ad52d381-51e7-2e0d-a935-2d0ddd2fd229">
    <mxGraphModel dx="2138" dy="585" grid="1" gridSize="10" guides="1" tooltips="1" connect="1" arrows="1" fold="1" page="1" pageScale="1" pageWidth="1100" pageHeight="850" background="none" math="0" shadow="0">
      <root>
        <mxCell id="0" />
        <mxCell id="1" parent="0" />
        <mxCell id="iJ-Tl1f5SFo22p0w_H0z-20" style="orthogonalLoop=1;jettySize=auto;html=1;exitX=0;exitY=0.5;exitDx=0;exitDy=0;entryX=0.909;entryY=0.318;entryDx=0;entryDy=0;entryPerimeter=0;rounded=0;endArrow=none;endFill=0;fontSize=14;" parent="1" source="iJ-Tl1f5SFo22p0w_H0z-1" target="iJ-Tl1f5SFo22p0w_H0z-5" edge="1">
          <mxGeometry relative="1" as="geometry" />
        </mxCell>
        <mxCell id="iJ-Tl1f5SFo22p0w_H0z-65" style="edgeStyle=none;rounded=0;orthogonalLoop=1;jettySize=auto;html=1;exitX=1;exitY=0.5;exitDx=0;exitDy=0;entryX=0.247;entryY=0.331;entryDx=0;entryDy=0;entryPerimeter=0;endArrow=none;endFill=0;fontSize=14;" parent="1" source="iJ-Tl1f5SFo22p0w_H0z-1" target="iJ-Tl1f5SFo22p0w_H0z-6" edge="1">
          <mxGeometry relative="1" as="geometry" />
        </mxCell>
        <mxCell id="iJ-Tl1f5SFo22p0w_H0z-1" value="学生" style="rounded=0;whiteSpace=wrap;html=1;fontSize=14;" parent="1" vertex="1">
          <mxGeometry x="400" y="360" width="120" height="60" as="geometry" />
        </mxCell>
        <mxCell id="iJ-Tl1f5SFo22p0w_H0z-48" style="edgeStyle=none;rounded=0;orthogonalLoop=1;jettySize=auto;html=1;exitX=0;exitY=0.5;exitDx=0;exitDy=0;entryX=0.709;entryY=0.83;entryDx=0;entryDy=0;entryPerimeter=0;endArrow=none;endFill=0;fontSize=14;" parent="1" source="iJ-Tl1f5SFo22p0w_H0z-2" target="iJ-Tl1f5SFo22p0w_H0z-7" edge="1">
          <mxGeometry relative="1" as="geometry" />
        </mxCell>
        <mxCell id="iJ-Tl1f5SFo22p0w_H0z-49" style="edgeStyle=none;rounded=0;orthogonalLoop=1;jettySize=auto;html=1;exitX=0.25;exitY=1;exitDx=0;exitDy=0;entryX=0.705;entryY=0.156;entryDx=0;entryDy=0;entryPerimeter=0;endArrow=none;endFill=0;fontSize=14;" parent="1" source="iJ-Tl1f5SFo22p0w_H0z-2" target="iJ-Tl1f5SFo22p0w_H0z-43" edge="1">
          <mxGeometry relative="1" as="geometry" />
        </mxCell>
        <mxCell id="iJ-Tl1f5SFo22p0w_H0z-50" style="edgeStyle=none;rounded=0;orthogonalLoop=1;jettySize=auto;html=1;exitX=0.5;exitY=1;exitDx=0;exitDy=0;entryX=0.67;entryY=0.116;entryDx=0;entryDy=0;entryPerimeter=0;endArrow=none;endFill=0;fontSize=14;" parent="1" source="iJ-Tl1f5SFo22p0w_H0z-2" target="iJ-Tl1f5SFo22p0w_H0z-44" edge="1">
          <mxGeometry relative="1" as="geometry" />
        </mxCell>
        <mxCell id="iJ-Tl1f5SFo22p0w_H0z-51" style="edgeStyle=none;rounded=0;orthogonalLoop=1;jettySize=auto;html=1;exitX=0.75;exitY=1;exitDx=0;exitDy=0;endArrow=none;endFill=0;fontSize=14;" parent="1" source="iJ-Tl1f5SFo22p0w_H0z-2" target="iJ-Tl1f5SFo22p0w_H0z-46" edge="1">
          <mxGeometry relative="1" as="geometry" />
        </mxCell>
        <mxCell id="iJ-Tl1f5SFo22p0w_H0z-52" style="edgeStyle=none;rounded=0;orthogonalLoop=1;jettySize=auto;html=1;exitX=1;exitY=0.5;exitDx=0;exitDy=0;entryX=0.257;entryY=0.746;entryDx=0;entryDy=0;entryPerimeter=0;endArrow=none;endFill=0;fontSize=14;" parent="1" source="iJ-Tl1f5SFo22p0w_H0z-2" target="iJ-Tl1f5SFo22p0w_H0z-8" edge="1">
          <mxGeometry relative="1" as="geometry" />
        </mxCell>
        <mxCell id="iJ-Tl1f5SFo22p0w_H0z-2" value="老师" style="rounded=0;whiteSpace=wrap;html=1;fontSize=14;" parent="1" vertex="1">
          <mxGeometry x="390" y="760" width="120" height="60" as="geometry" />
        </mxCell>
        <mxCell id="iJ-Tl1f5SFo22p0w_H0z-53" style="edgeStyle=none;rounded=0;orthogonalLoop=1;jettySize=auto;html=1;exitX=0;exitY=1;exitDx=0;exitDy=0;entryX=0.73;entryY=0.266;entryDx=0;entryDy=0;entryPerimeter=0;endArrow=none;endFill=0;fontSize=14;" parent="1" source="iJ-Tl1f5SFo22p0w_H0z-3" target="iJ-Tl1f5SFo22p0w_H0z-8" edge="1">
          <mxGeometry relative="1" as="geometry" />
        </mxCell>
        <mxCell id="iJ-Tl1f5SFo22p0w_H0z-56" style="edgeStyle=none;rounded=0;orthogonalLoop=1;jettySize=auto;html=1;exitX=0.75;exitY=1;exitDx=0;exitDy=0;entryX=0;entryY=0.252;entryDx=0;entryDy=0;entryPerimeter=0;endArrow=none;endFill=0;fontSize=14;" parent="1" source="iJ-Tl1f5SFo22p0w_H0z-3" target="iJ-Tl1f5SFo22p0w_H0z-35" edge="1">
          <mxGeometry relative="1" as="geometry" />
        </mxCell>
        <mxCell id="iJ-Tl1f5SFo22p0w_H0z-57" style="edgeStyle=none;rounded=0;orthogonalLoop=1;jettySize=auto;html=1;exitX=1;exitY=0.75;exitDx=0;exitDy=0;entryX=0.025;entryY=0.66;entryDx=0;entryDy=0;entryPerimeter=0;endArrow=none;endFill=0;fontSize=14;" parent="1" source="iJ-Tl1f5SFo22p0w_H0z-3" target="iJ-Tl1f5SFo22p0w_H0z-30" edge="1">
          <mxGeometry relative="1" as="geometry" />
        </mxCell>
        <mxCell id="iJ-Tl1f5SFo22p0w_H0z-58" style="edgeStyle=none;rounded=0;orthogonalLoop=1;jettySize=auto;html=1;exitX=1;exitY=0.25;exitDx=0;exitDy=0;entryX=0;entryY=1;entryDx=0;entryDy=0;endArrow=none;endFill=0;fontSize=14;" parent="1" source="iJ-Tl1f5SFo22p0w_H0z-3" target="iJ-Tl1f5SFo22p0w_H0z-32" edge="1">
          <mxGeometry relative="1" as="geometry" />
        </mxCell>
        <mxCell id="iJ-Tl1f5SFo22p0w_H0z-59" style="edgeStyle=none;rounded=0;orthogonalLoop=1;jettySize=auto;html=1;exitX=0.75;exitY=0;exitDx=0;exitDy=0;entryX=0.39;entryY=0.932;entryDx=0;entryDy=0;endArrow=none;endFill=0;entryPerimeter=0;fontSize=14;" parent="1" source="iJ-Tl1f5SFo22p0w_H0z-3" target="iJ-Tl1f5SFo22p0w_H0z-33" edge="1">
          <mxGeometry relative="1" as="geometry" />
        </mxCell>
        <mxCell id="iJ-Tl1f5SFo22p0w_H0z-66" style="edgeStyle=none;rounded=0;orthogonalLoop=1;jettySize=auto;html=1;exitX=0.25;exitY=0;exitDx=0;exitDy=0;entryX=0.658;entryY=0.777;entryDx=0;entryDy=0;entryPerimeter=0;endArrow=none;endFill=0;fontSize=14;" parent="1" source="iJ-Tl1f5SFo22p0w_H0z-3" target="iJ-Tl1f5SFo22p0w_H0z-6" edge="1">
          <mxGeometry relative="1" as="geometry" />
        </mxCell>
        <mxCell id="iJ-Tl1f5SFo22p0w_H0z-3" value="课程" style="rounded=0;whiteSpace=wrap;html=1;fontSize=14;" parent="1" vertex="1">
          <mxGeometry x="740" y="560" width="120" height="60" as="geometry" />
        </mxCell>
        <mxCell id="iJ-Tl1f5SFo22p0w_H0z-21" style="edgeStyle=none;rounded=0;orthogonalLoop=1;jettySize=auto;html=1;exitX=0.5;exitY=0;exitDx=0;exitDy=0;entryX=0.295;entryY=0.727;entryDx=0;entryDy=0;entryPerimeter=0;endArrow=none;endFill=0;fontSize=14;" parent="1" source="iJ-Tl1f5SFo22p0w_H0z-4" target="iJ-Tl1f5SFo22p0w_H0z-5" edge="1">
          <mxGeometry relative="1" as="geometry" />
        </mxCell>
        <mxCell id="iJ-Tl1f5SFo22p0w_H0z-47" style="edgeStyle=none;rounded=0;orthogonalLoop=1;jettySize=auto;html=1;exitX=0.5;exitY=1;exitDx=0;exitDy=0;endArrow=none;endFill=0;entryX=0.272;entryY=0.358;entryDx=0;entryDy=0;entryPerimeter=0;fontSize=14;" parent="1" source="iJ-Tl1f5SFo22p0w_H0z-4" target="iJ-Tl1f5SFo22p0w_H0z-7" edge="1">
          <mxGeometry relative="1" as="geometry" />
        </mxCell>
        <mxCell id="iJ-Tl1f5SFo22p0w_H0z-4" value="院系" style="rounded=0;whiteSpace=wrap;html=1;fontSize=14;" parent="1" vertex="1">
          <mxGeometry x="90" y="560" width="120" height="60" as="geometry" />
        </mxCell>
        <mxCell id="iJ-Tl1f5SFo22p0w_H0z-5" value="属于" style="html=1;whiteSpace=wrap;aspect=fixed;shape=isoRectangle;fontSize=14;" parent="1" vertex="1">
          <mxGeometry x="210" y="429" width="110" height="66" as="geometry" />
        </mxCell>
        <mxCell id="iJ-Tl1f5SFo22p0w_H0z-6" value="修读" style="html=1;whiteSpace=wrap;aspect=fixed;shape=isoRectangle;fontSize=14;" parent="1" vertex="1">
          <mxGeometry x="600" y="425" width="116.67" height="70" as="geometry" />
        </mxCell>
        <mxCell id="iJ-Tl1f5SFo22p0w_H0z-7" value="属于" style="html=1;whiteSpace=wrap;aspect=fixed;shape=isoRectangle;fontSize=14;" parent="1" vertex="1">
          <mxGeometry x="191.66" y="675" width="110" height="66" as="geometry" />
        </mxCell>
        <mxCell id="iJ-Tl1f5SFo22p0w_H0z-8" value="讲授" style="html=1;whiteSpace=wrap;aspect=fixed;shape=isoRectangle;fontSize=14;" parent="1" vertex="1">
          <mxGeometry x="591.66" y="660" width="116.67" height="70" as="geometry" />
        </mxCell>
        <mxCell id="iJ-Tl1f5SFo22p0w_H0z-23" style="edgeStyle=none;rounded=0;orthogonalLoop=1;jettySize=auto;html=1;exitX=0.5;exitY=1;exitDx=0;exitDy=0;endArrow=none;endFill=0;fontSize=14;" parent="1" source="iJ-Tl1f5SFo22p0w_H0z-9" edge="1">
          <mxGeometry relative="1" as="geometry">
            <mxPoint x="430" y="360" as="targetPoint" />
          </mxGeometry>
        </mxCell>
        <mxCell id="iJ-Tl1f5SFo22p0w_H0z-9" value="姓名" style="ellipse;whiteSpace=wrap;html=1;fontSize=14;" parent="1" vertex="1">
          <mxGeometry x="390" y="230" width="80" height="50" as="geometry" />
        </mxCell>
        <mxCell id="iJ-Tl1f5SFo22p0w_H0z-22" style="edgeStyle=none;rounded=0;orthogonalLoop=1;jettySize=auto;html=1;exitX=0.5;exitY=1;exitDx=0;exitDy=0;endArrow=none;endFill=0;fontSize=14;" parent="1" source="iJ-Tl1f5SFo22p0w_H0z-10" target="iJ-Tl1f5SFo22p0w_H0z-1" edge="1">
          <mxGeometry relative="1" as="geometry" />
        </mxCell>
        <mxCell id="iJ-Tl1f5SFo22p0w_H0z-10" value="学号" style="ellipse;whiteSpace=wrap;html=1;fontSize=14;" parent="1" vertex="1">
          <mxGeometry x="300" y="250" width="80" height="50" as="geometry" />
        </mxCell>
        <mxCell id="iJ-Tl1f5SFo22p0w_H0z-24" style="edgeStyle=none;rounded=0;orthogonalLoop=1;jettySize=auto;html=1;exitX=0.5;exitY=1;exitDx=0;exitDy=0;entryX=0.5;entryY=0;entryDx=0;entryDy=0;endArrow=none;endFill=0;fontSize=14;" parent="1" source="iJ-Tl1f5SFo22p0w_H0z-11" target="iJ-Tl1f5SFo22p0w_H0z-1" edge="1">
          <mxGeometry relative="1" as="geometry" />
        </mxCell>
        <mxCell id="iJ-Tl1f5SFo22p0w_H0z-11" value="性别" style="ellipse;whiteSpace=wrap;html=1;fontSize=14;" parent="1" vertex="1">
          <mxGeometry x="480" y="230" width="80" height="50" as="geometry" />
        </mxCell>
        <mxCell id="iJ-Tl1f5SFo22p0w_H0z-25" style="edgeStyle=none;rounded=0;orthogonalLoop=1;jettySize=auto;html=1;exitX=0.5;exitY=1;exitDx=0;exitDy=0;entryX=0.75;entryY=0;entryDx=0;entryDy=0;endArrow=none;endFill=0;fontSize=14;" parent="1" source="iJ-Tl1f5SFo22p0w_H0z-14" target="iJ-Tl1f5SFo22p0w_H0z-1" edge="1">
          <mxGeometry relative="1" as="geometry" />
        </mxCell>
        <mxCell id="iJ-Tl1f5SFo22p0w_H0z-14" value="出生日" style="ellipse;whiteSpace=wrap;html=1;fontSize=14;" parent="1" vertex="1">
          <mxGeometry x="570" y="240" width="80" height="50" as="geometry" />
        </mxCell>
        <mxCell id="iJ-Tl1f5SFo22p0w_H0z-29" style="edgeStyle=none;rounded=0;orthogonalLoop=1;jettySize=auto;html=1;exitX=1;exitY=1;exitDx=0;exitDy=0;endArrow=none;endFill=0;fontSize=14;" parent="1" source="iJ-Tl1f5SFo22p0w_H0z-15" target="iJ-Tl1f5SFo22p0w_H0z-4" edge="1">
          <mxGeometry relative="1" as="geometry" />
        </mxCell>
        <mxCell id="iJ-Tl1f5SFo22p0w_H0z-15" value="系名称" style="ellipse;whiteSpace=wrap;html=1;fontSize=14;" parent="1" vertex="1">
          <mxGeometry x="30" y="480" width="80" height="50" as="geometry" />
        </mxCell>
        <mxCell id="iJ-Tl1f5SFo22p0w_H0z-28" style="edgeStyle=none;rounded=0;orthogonalLoop=1;jettySize=auto;html=1;exitX=1;exitY=0.5;exitDx=0;exitDy=0;endArrow=none;endFill=0;fontSize=14;" parent="1" source="iJ-Tl1f5SFo22p0w_H0z-26" target="iJ-Tl1f5SFo22p0w_H0z-4" edge="1">
          <mxGeometry relative="1" as="geometry" />
        </mxCell>
        <mxCell id="iJ-Tl1f5SFo22p0w_H0z-26" value="系号&lt;br style=&quot;font-size: 14px;&quot;&gt;" style="ellipse;whiteSpace=wrap;html=1;fontSize=14;" parent="1" vertex="1">
          <mxGeometry x="-20" y="580" width="80" height="50" as="geometry" />
        </mxCell>
        <mxCell id="iJ-Tl1f5SFo22p0w_H0z-30" value="课程名" style="ellipse;whiteSpace=wrap;html=1;fontSize=14;" parent="1" vertex="1">
          <mxGeometry x="910" y="560" width="80" height="50" as="geometry" />
        </mxCell>
        <mxCell id="iJ-Tl1f5SFo22p0w_H0z-32" value="课程号" style="ellipse;whiteSpace=wrap;html=1;fontSize=14;" parent="1" vertex="1">
          <mxGeometry x="890" y="500" width="80" height="50" as="geometry" />
        </mxCell>
        <mxCell id="iJ-Tl1f5SFo22p0w_H0z-33" value="课程类型" style="ellipse;whiteSpace=wrap;html=1;fontSize=14;" parent="1" vertex="1">
          <mxGeometry x="820" y="460" width="80" height="50" as="geometry" />
        </mxCell>
        <mxCell id="iJ-Tl1f5SFo22p0w_H0z-35" value="课程学分" style="ellipse;whiteSpace=wrap;html=1;fontSize=14;" parent="1" vertex="1">
          <mxGeometry x="900" y="630" width="80" height="50" as="geometry" />
        </mxCell>
        <mxCell id="iJ-Tl1f5SFo22p0w_H0z-63" style="edgeStyle=none;rounded=0;orthogonalLoop=1;jettySize=auto;html=1;exitX=0;exitY=1;exitDx=0;exitDy=0;entryX=0.665;entryY=0.217;entryDx=0;entryDy=0;entryPerimeter=0;endArrow=none;endFill=0;fontSize=14;" parent="1" source="iJ-Tl1f5SFo22p0w_H0z-36" target="iJ-Tl1f5SFo22p0w_H0z-6" edge="1">
          <mxGeometry relative="1" as="geometry" />
        </mxCell>
        <mxCell id="iJ-Tl1f5SFo22p0w_H0z-36" value="上课时间" style="ellipse;whiteSpace=wrap;html=1;fontSize=14;" parent="1" vertex="1">
          <mxGeometry x="708.33" y="350" width="80" height="50" as="geometry" />
        </mxCell>
        <mxCell id="iJ-Tl1f5SFo22p0w_H0z-64" style="edgeStyle=none;rounded=0;orthogonalLoop=1;jettySize=auto;html=1;exitX=0;exitY=0.5;exitDx=0;exitDy=0;entryX=0.885;entryY=0.377;entryDx=0;entryDy=0;entryPerimeter=0;endArrow=none;endFill=0;fontSize=14;" parent="1" source="iJ-Tl1f5SFo22p0w_H0z-37" target="iJ-Tl1f5SFo22p0w_H0z-6" edge="1">
          <mxGeometry relative="1" as="geometry" />
        </mxCell>
        <mxCell id="iJ-Tl1f5SFo22p0w_H0z-37" value="上课地点" style="ellipse;whiteSpace=wrap;html=1;fontSize=14;" parent="1" vertex="1">
          <mxGeometry x="750" y="410" width="80" height="50" as="geometry" />
        </mxCell>
        <mxCell id="iJ-Tl1f5SFo22p0w_H0z-68" style="edgeStyle=none;rounded=0;orthogonalLoop=1;jettySize=auto;html=1;exitX=0;exitY=0;exitDx=0;exitDy=0;entryX=0.668;entryY=0.826;entryDx=0;entryDy=0;entryPerimeter=0;fontSize=14;endArrow=none;endFill=0;" parent="1" source="iJ-Tl1f5SFo22p0w_H0z-39" target="iJ-Tl1f5SFo22p0w_H0z-8" edge="1">
          <mxGeometry relative="1" as="geometry" />
        </mxCell>
        <mxCell id="iJ-Tl1f5SFo22p0w_H0z-39" value="讲课时间" style="ellipse;whiteSpace=wrap;html=1;fontSize=14;" parent="1" vertex="1">
          <mxGeometry x="690" y="741" width="80" height="50" as="geometry" />
        </mxCell>
        <mxCell id="iJ-Tl1f5SFo22p0w_H0z-61" style="edgeStyle=none;rounded=0;orthogonalLoop=1;jettySize=auto;html=1;exitX=1;exitY=0;exitDx=0;exitDy=0;entryX=0.377;entryY=0.811;entryDx=0;entryDy=0;entryPerimeter=0;endArrow=none;endFill=0;fontSize=14;" parent="1" source="iJ-Tl1f5SFo22p0w_H0z-41" target="iJ-Tl1f5SFo22p0w_H0z-6" edge="1">
          <mxGeometry relative="1" as="geometry" />
        </mxCell>
        <mxCell id="iJ-Tl1f5SFo22p0w_H0z-41" value="成绩" style="ellipse;whiteSpace=wrap;html=1;fontSize=14;" parent="1" vertex="1">
          <mxGeometry x="540" y="500" width="80" height="50" as="geometry" />
        </mxCell>
        <mxCell id="iJ-Tl1f5SFo22p0w_H0z-67" style="edgeStyle=none;rounded=0;orthogonalLoop=1;jettySize=auto;html=1;exitX=0;exitY=0.5;exitDx=0;exitDy=0;entryX=0.874;entryY=0.62;entryDx=0;entryDy=0;entryPerimeter=0;fontSize=14;endArrow=none;endFill=0;" parent="1" source="iJ-Tl1f5SFo22p0w_H0z-42" target="iJ-Tl1f5SFo22p0w_H0z-8" edge="1">
          <mxGeometry relative="1" as="geometry" />
        </mxCell>
        <mxCell id="iJ-Tl1f5SFo22p0w_H0z-42" value="讲课地点" style="ellipse;whiteSpace=wrap;html=1;fontSize=14;" parent="1" vertex="1">
          <mxGeometry x="750" y="680" width="80" height="50" as="geometry" />
        </mxCell>
        <mxCell id="iJ-Tl1f5SFo22p0w_H0z-43" value="姓名" style="ellipse;whiteSpace=wrap;html=1;fontSize=14;" parent="1" vertex="1">
          <mxGeometry x="289.99999999999994" y="850" width="80" height="50" as="geometry" />
        </mxCell>
        <mxCell id="iJ-Tl1f5SFo22p0w_H0z-44" value="教师编号" style="ellipse;whiteSpace=wrap;html=1;fontSize=14;" parent="1" vertex="1">
          <mxGeometry x="379.99999999999994" y="880" width="80" height="50" as="geometry" />
        </mxCell>
        <mxCell id="iJ-Tl1f5SFo22p0w_H0z-46" value="教师职称" style="ellipse;whiteSpace=wrap;html=1;fontSize=14;" parent="1" vertex="1">
          <mxGeometry x="469.99999999999994" y="870" width="80" height="50" as="geometry" />
        </mxCell>
      </root>
    </mxGraphModel>
  </diagram>
</mxfile>
